<svg id="svg" version="1.1" width="390" height="390" xmlns="http://www.w3.org/2000/svg" xmlns:xlink="http://www.w3.org/1999/xlink" ><g id="svgg"><path id="path0" d="M103.880 77.917 C 102.065 79.024,98.107 83.291,95.084 87.400 C 17.252 193.210,22.572 185.552,22.572 191.795 C 22.572 198.038,17.252 190.380,95.084 296.189 C 104.875 309.500,115.780 311.586,122.025 301.344 C 127.519 292.332,131.315 298.536,66.346 210.350 L 62.259 204.803 119.078 205.482 C 237.197 206.893,366.670 206.470,370.168 204.661 C 379.171 200.005,379.455 186.395,370.653 181.395 C 366.246 178.891,349.223 178.522,224.103 178.218 C 163.179 178.070,102.157 177.718,88.498 177.436 L 63.662 176.923 91.942 138.462 C 125.382 92.983,124.095 94.934,124.095 89.744 C 124.095 79.147,112.749 72.509,103.880 77.917 " stroke="none" fill="#000000" fill-rule="evenodd"></path></g></svg>