<?xml version="1.0" encoding="UTF-8"?>
<svg version="1.1" xmlns="http://www.w3.org/2000/svg" width="2016" height="2016">
<path d="M0 0 C665.28 0 1330.56 0 2016 0 C2016 665.28 2016 1330.56 2016 2016 C1350.72 2016 685.44 2016 0 2016 C0 1350.72 0 685.44 0 0 Z " fill="#FEFEFE" transform="translate(0,0)"/>
<path d="M0 0 C291.72 0 583.44 0 884 0 C884 291.72 884 583.44 884 884 C592.28 884 300.56 884 0 884 C0 592.28 0 300.56 0 0 Z " fill="#05A6F0" transform="translate(85,1047)"/>
<path d="M0 0 C291.72 0 583.44 0 884 0 C884 291.72 884 583.44 884 884 C592.28 884 300.56 884 0 884 C0 592.28 0 300.56 0 0 Z " fill="#81BC06" transform="translate(1047,85)"/>
<path d="M0 0 C291.72 0 583.44 0 884 0 C884 291.72 884 583.44 884 884 C592.28 884 300.56 884 0 884 C0 592.28 0 300.56 0 0 Z " fill="#F35325" transform="translate(85,85)"/>
<path d="M0 0 C291.39 0 582.78 0 883 0 C883 291.39 883 582.78 883 883 C591.61 883 300.22 883 0 883 C0 591.61 0 300.22 0 0 Z " fill="#FFBA08" transform="translate(1047,1047)"/>
</svg>
