<?xml version="1.0" encoding="UTF-8" standalone="no"?>
<!DOCTYPE svg PUBLIC "-//W3C//DTD SVG 1.1//EN" "http://www.w3.org/Graphics/SVG/1.1/DTD/svg11.dtd">
<svg width="100%" height="100%" viewBox="0 0 600 600" version="1.1" xmlns="http://www.w3.org/2000/svg" xmlns:xlink="http://www.w3.org/1999/xlink" xml:space="preserve" xmlns:serif="http://www.serif.com/" style="fill-rule:evenodd;clip-rule:evenodd;stroke-linecap:round;stroke-linejoin:round;stroke-miterlimit:1.5;">
    <g transform="matrix(0.842463,-0.391744,0.391744,0.842463,0.755759,225.235942)">
        <g transform="matrix(0.908421,-0.511757,0.819361,1.454449,-12.890201,249.911114)">
            <path d="M506.244,36.25L550.57,79.864L506.244,123.479L461.918,79.864L506.244,36.25Z" style="fill:rgb(0,56,133);stroke:rgb(0,56,133);stroke-width:6.44px;"/>
        </g>
        <g transform="matrix(1,0,0,1,6.567427,3.053842)">
            <path d="M465.819,75.215L438.634,82.788" style="fill:none;stroke:rgb(0,56,133);stroke-width:8.97px;"/>
        </g>
        <g transform="matrix(1,0,0,1,11.921123,31.929743)">
            <path d="M489.509,116.769L481.742,134.634" style="fill:none;stroke:rgb(0,56,133);stroke-width:8.97px;"/>
        </g>
        <g transform="matrix(0.906762,0.421643,-0.421643,0.906762,112.833205,-166.696784)">
            <path d="M407.86,89.424L485.839,141.614L488.189,73.605L440.13,62.925L407.86,89.424Z" style="fill:rgb(0,56,133);stroke:rgb(0,56,133);stroke-width:8.97px;"/>
        </g>
        <g transform="matrix(0.612322,0.284729,-0.284729,0.612322,499.325171,75.883563)">
            <path d="M99.341,155.266L100.741,159.492L103.439,158.186L103.006,161.106L107.536,161.106L103.871,163.718L105.971,165.831L103.006,166.33L104.406,170.556L100.741,167.944L99.341,170.556L97.941,167.944L94.276,170.556L95.676,166.33L92.711,165.831L94.811,163.718L91.146,161.106L95.676,161.106L95.244,158.186L97.941,159.492L99.341,155.266Z" style="fill:rgb(0,56,133);stroke:rgb(0,56,133);stroke-width:13.28px;"/>
        </g>
        <g transform="matrix(0.612322,0.284729,-0.284729,0.612322,499.325171,75.883563)">
            <path d="M98.063,74.897C98.063,116.733 97.573,116.574 99.248,158.452" style="fill:none;stroke:rgb(0,56,133);stroke-width:13.28px;"/>
        </g>
    </g>
    <g transform="matrix(-1.390015,-0.646355,-0.558807,1.20174,927.866758,274.181658)">
        <g transform="matrix(0.908421,-0.511757,0.819361,1.454449,-12.890201,249.911114)">
            <path d="M506.244,36.25L550.57,79.864L506.244,123.479L461.918,79.864L506.244,36.25Z" style="fill:rgb(0,56,133);stroke:rgb(0,56,133);stroke-width:4.02px;"/>
        </g>
        <g transform="matrix(1,0,0,1,6.567427,3.053842)">
            <path d="M465.819,75.215L438.634,82.788" style="fill:none;stroke:rgb(0,56,133);stroke-width:5.82px;"/>
        </g>
        <g transform="matrix(1,0,0,1,11.921123,31.929743)">
            <path d="M489.509,116.769L481.742,134.634" style="fill:none;stroke:rgb(0,56,133);stroke-width:5.82px;"/>
        </g>
        <g transform="matrix(0.906762,0.421643,-0.421643,0.906762,112.833205,-166.696784)">
            <path d="M407.86,89.424L485.839,141.614L488.189,73.605L440.13,62.925L407.86,89.424Z" style="fill:rgb(0,56,133);stroke:rgb(0,56,133);stroke-width:6.17px;"/>
        </g>
        <g transform="matrix(-0.591517,-0.318147,-0.275054,0.684189,624.263718,107.605676)">
            <path d="M99.341,155.266L100.741,159.492L103.439,158.186L103.006,161.106L107.536,161.106L103.871,163.718L105.971,165.831L103.006,166.33L104.406,170.556L100.741,167.944L99.341,170.556L97.941,167.944L94.276,170.556L95.676,166.33L92.711,165.831L94.811,163.718L91.146,161.106L95.676,161.106L95.244,158.186L97.941,159.492L99.341,155.266Z" style="fill:rgb(0,56,133);stroke:rgb(0,56,133);stroke-width:8.33px;"/>
        </g>
        <g transform="matrix(-0.591517,-0.318147,-0.275054,0.684189,624.263718,107.605676)">
            <path d="M98.063,74.897C98.063,116.733 97.573,116.574 99.248,158.452" style="fill:none;stroke:rgb(0,56,133);stroke-width:8.33px;"/>
        </g>
    </g>
    <g id="User" transform="matrix(1.759548,0,0,1.883234,-168.125861,-177.794045)">
        <g transform="matrix(1,0,0,0.844244,189.364131,113.522668)">
            <path d="M197.854,315.074L79.35,315.074C73.345,301.896 70.183,286.948 70.183,271.732C70.183,223.889 100.841,185.047 138.602,185.047C176.363,185.047 207.02,223.889 207.02,271.732C207.02,286.948 203.859,301.896 197.854,315.074Z" style="fill:rgb(0,88,212);stroke:rgb(0,88,212);stroke-width:4.97px;"/>
        </g>
        <g transform="matrix(1,0,0,1,-7.111517,7.11111)">
            <ellipse cx="335.078" cy="194.68" rx="48.593" ry="47.881" style="fill:rgb(0,88,212);stroke:rgb(0,88,212);stroke-width:4.57px;"/>
        </g>
    </g>
    <g id="User1" serif:id="User" transform="matrix(2.326211,0,0,2.326211,-514.617869,-301.112387)">
        <g transform="matrix(1,0,0,0.844244,189.364131,113.522668)">
            <path d="M197.854,315.074L79.35,315.074C73.345,301.896 70.183,286.948 70.183,271.732C70.183,223.889 100.841,185.047 138.602,185.047C176.363,185.047 207.02,223.889 207.02,271.732C207.02,286.948 203.859,301.896 197.854,315.074Z" style="fill:rgb(15,115,255);stroke:rgb(15,115,255);stroke-width:1.94px;"/>
        </g>
        <g transform="matrix(1,0,0,1,-7.111517,7.11111)">
            <ellipse cx="335.078" cy="194.68" rx="48.593" ry="47.881" style="fill:rgb(15,115,255);stroke:rgb(15,115,255);stroke-width:3.58px;"/>
        </g>
    </g>
    <g transform="matrix(2.326211,0,0,2.326211,-409.302731,-318.343577)">
        <g transform="matrix(1,0,0,1,-0.374771,-0.06672)">
            <path d="M283.194,361.301C282.838,361.34 282.772,361.266 282.608,361.594C282.348,362.115 282.949,362.339 282.999,362.343C283.965,362.431 283.441,361.557 283.52,361.399" style="fill:none;stroke:rgb(0,88,212);stroke-width:5.37px;"/>
        </g>
        <g transform="matrix(1.259176,0,0,1.259176,-75.341764,-84.671604)">
            <path d="M258.581,330.054C258.892,329.431 263.705,324.209 270.18,320.998C275.762,318.23 283.027,317.992 284.447,317.975C286.141,317.955 293.342,318.648 298.636,321.371C304.094,324.178 309.843,330.018 310.1,330.531" style="fill:none;stroke:rgb(0,88,212);stroke-width:7.11px;"/>
        </g>
        <g transform="matrix(0.650374,0,0,0.650374,97.765231,128.570902)">
            <path d="M258.581,330.054C258.892,329.431 263.705,324.209 270.18,320.998C275.762,318.23 283.027,317.992 284.447,317.975C286.141,317.955 293.342,318.648 298.636,321.371C304.094,324.178 309.843,330.018 310.1,330.531" style="fill:none;stroke:rgb(0,88,212);stroke-width:13.77px;"/>
        </g>
        <g transform="matrix(0.249943,0,0,0.14229,211.623989,305.78765)">
            <path d="M258.581,330.054C258.892,329.431 263.705,324.209 270.18,320.998C275.762,318.23 283.027,317.992 284.447,317.975C286.141,317.955 293.342,318.648 298.636,321.371C304.094,324.178 309.843,330.018 310.1,330.531" style="fill:none;stroke:rgb(0,88,212);stroke-width:35.23px;"/>
        </g>
    </g>
</svg>
