<?xml version="1.0" encoding="UTF-8"?>
<!-- Generator: Adobe Illustrator 22.0.1, SVG Export Plug-In . SVG Version: 6.00 Build 0)  -->
<svg version="1.1" id="Layer_1" xmlns="http://www.w3.org/2000/svg" xmlns:xlink="http://www.w3.org/1999/xlink" x="0px" y="0px" viewBox="0 0 653.4 57.8" style="enable-background:new 0 0 653.4 57.8;" xml:space="preserve">
<style type="text/css">
	.st0{fill:#007B7B;}
</style>
<g>
	<path class="st0" d="M213.3,54.6c0,0.5,0.3,1.5,2,1.5c0.9,0,2-0.2,2-1.2c0-0.7-0.7-0.9-1.7-1.2l-1-0.2c-1.5-0.4-3-0.7-3-2.8   c0-1.1,0.6-2.9,3.6-2.9c2.9,0,3.7,1.9,3.7,3H217c-0.1-0.4-0.2-1.4-1.9-1.4c-0.7,0-1.6,0.3-1.6,1.1c0,0.7,0.6,0.9,1,1l2.3,0.6   c1.3,0.3,2.5,0.8,2.5,2.5c0,2.8-2.9,3.1-3.7,3.1c-3.4,0-4-2-4-3.2H213.3z"/>
	<path class="st0" d="M230.3,57.5h-2v-7.8h-2.8v-1.7h7.7v1.7h-2.8V57.5z"/>
	<path class="st0" d="M240.4,57.5h-2.1l3.4-9.4h2.3l3.3,9.4h-2.1l-0.6-1.9H241L240.4,57.5z M241.6,53.9h2.4l-1.2-3.7h0L241.6,53.9z"/>
	<path class="st0" d="M257.3,57.5h-2v-7.8h-2.8v-1.7h7.7v1.7h-2.8V57.5z"/>
	<path class="st0" d="M274.1,49.7h-5v2h4.6v1.7h-4.6v2.4h5.2v1.7h-7.2v-9.4h6.9V49.7z"/>
	<path class="st0" d="M298.9,54.2c0,2.5-1.5,3.5-3.9,3.5c-0.9,0-2.2-0.2-3-1.1c-0.5-0.6-0.7-1.3-0.7-2.3v-6.2h2v6.1   c0,1.3,0.8,1.9,1.7,1.9c1.4,0,1.9-0.7,1.9-1.8v-6.2h2V54.2z"/>
	<path class="st0" d="M312.5,48.1h1.8v9.4h-2l-3.8-6.7h0v6.7h-1.8v-9.4h2.1l3.7,6.6h0V48.1z"/>
	<path class="st0" d="M324,57.5h-2v-9.4h2V57.5z"/>
	<path class="st0" d="M337.2,48.1h2l-3.2,9.4h-1.9l-3.2-9.4h2.1l2,7.1h0L337.2,48.1z"/>
	<path class="st0" d="M353.3,49.7h-5v2h4.6v1.7h-4.6v2.4h5.2v1.7h-7.2v-9.4h6.9V49.7z"/>
	<path class="st0" d="M361,48.1h4.8c2.5,0,3,1.8,3,2.7c0,1-0.5,1.9-1.5,2.2c0.8,0.3,1.2,0.6,1.2,2.4c0,1.4,0,1.7,0.4,1.9v0.2h-2.2   c-0.1-0.4-0.2-0.9-0.2-1.9c0-1.3-0.1-1.8-1.5-1.8h-2v3.7H361V48.1z M365.3,52.2c1,0,1.5-0.4,1.5-1.3c0-0.5-0.2-1.2-1.4-1.2H363v2.5   H365.3z"/>
	<path class="st0" d="M377.8,54.6c0,0.5,0.3,1.5,2,1.5c0.9,0,2-0.2,2-1.2c0-0.7-0.7-0.9-1.7-1.2l-1-0.2c-1.5-0.4-3-0.7-3-2.8   c0-1.1,0.6-2.9,3.6-2.9c2.9,0,3.7,1.9,3.7,3h-1.9c-0.1-0.4-0.2-1.4-1.9-1.4c-0.7,0-1.6,0.3-1.6,1.1c0,0.7,0.6,0.9,1,1l2.3,0.6   c1.3,0.3,2.5,0.8,2.5,2.5c0,2.8-2.9,3.1-3.7,3.1c-3.4,0-4-2-4-3.2H377.8z"/>
	<path class="st0" d="M392.9,57.5h-2v-9.4h2V57.5z"/>
	<path class="st0" d="M404.6,57.5h-2v-7.8h-2.8v-1.7h7.7v1.7h-2.8V57.5z"/>
	<path class="st0" d="M419,57.5h-2v-3.6l-3.3-5.9h2.3l2,4.1l1.9-4.1h2.2L419,54V57.5z"/>
	<path class="st0" d="M442.9,47.8c1.2,0,4.5,0.5,4.5,5c0,4.4-3.3,5-4.5,5c-1.2,0-4.5-0.5-4.5-5C438.4,48.4,441.7,47.8,442.9,47.8z    M442.9,56.1c1.1,0,2.6-0.7,2.6-3.3c0-2.6-1.5-3.3-2.6-3.3c-1.1,0-2.6,0.7-2.6,3.3C440.3,55.4,441.8,56.1,442.9,56.1z"/>
	<path class="st0" d="M456.9,57.5h-2v-9.4h6.7v1.7h-4.7v2.1h4.1v1.7h-4.1V57.5z"/>
	<path class="st0" d="M484.1,48.1h1.8v9.4h-2l-3.8-6.7h0v6.7h-1.8v-9.4h2.1l3.7,6.6h0V48.1z"/>
	<path class="st0" d="M500.7,49.7h-5v2h4.6v1.7h-4.6v2.4h5.2v1.7h-7.2v-9.4h6.9V49.7z"/>
	<path class="st0" d="M507.6,48.1h2.1c1.2,5.2,1.3,5.8,1.5,6.9h0c0.2-1,0.3-1.9,1.3-6.9h2.1c1.1,5.2,1.2,5.7,1.4,6.9h0   c0.2-0.9,0.3-1.7,1.5-6.9h2l-2.7,9.4h-1.9c-1-4.6-1.1-5.5-1.5-7.3h0c-0.3,1.8-0.4,2.5-1.5,7.3h-1.8L507.6,48.1z"/>
	<path class="st0" d="M539.1,57.5h-2v-3.6l-3.3-5.9h2.3l2,4.1l1.9-4.1h2.2l-3.1,5.9V57.5z"/>
	<path class="st0" d="M552.6,47.8c1.2,0,4.5,0.5,4.5,5c0,4.4-3.3,5-4.5,5s-4.5-0.5-4.5-5C548,48.4,551.3,47.8,552.6,47.8z    M552.6,56.1c1.1,0,2.6-0.7,2.6-3.3c0-2.6-1.5-3.3-2.6-3.3s-2.6,0.7-2.6,3.3C550,55.4,551.5,56.1,552.6,56.1z"/>
	<path class="st0" d="M564.6,48.1h4.8c2.5,0,3,1.8,3,2.7c0,1-0.5,1.9-1.5,2.2c0.8,0.3,1.2,0.6,1.2,2.4c0,1.4,0,1.7,0.4,1.9v0.2h-2.2   c-0.1-0.4-0.2-0.9-0.2-1.9c0-1.3-0.1-1.8-1.5-1.8h-2v3.7h-1.9V48.1z M568.8,52.2c1,0,1.5-0.4,1.5-1.3c0-0.5-0.2-1.2-1.4-1.2h-2.5   v2.5H568.8z"/>
	<path class="st0" d="M582.1,57.5h-2v-9.4h2v3.8l3.6-3.8h2.5l-3.8,3.9l4.1,5.6h-2.5l-2.9-4.1l-0.9,0.9V57.5z"/>
</g>
<path d="M24.5,17.5H8.1L8.5,6.2h11.6c1.6,0,2.9,0.1,4.3,0.2l2.3,0.2l0.3-6H1.5v1c0,10.6-0.9,32.5-1.4,37.8l-0.1,1h7.5v-1  c0-2.6,0.1-11,0.4-16.4h5.9c3.1,0,6.3,0,9.5,0.2l1,0.1L24.5,17.5z"/>
<path d="M39.5,41.1c1.8,0,3.6-0.2,5.7-0.6l0.6-0.1l1.5-5.7l-1.7,0.6c-1.9,0.6-3.8,1-5.6,1c-1.6,0-5.4-0.4-5.4-3.6  c0-3.1,3.3-4.3,8.4-5.7c2.1-0.6,4.1-1.1,5.7-2c0,0.7-0.1,1.4-0.1,2.1c-0.2,4.4-0.4,9-0.8,12.3l-0.1,1.1h7v-1c0-3.4,0.3-8.3,0.5-12.7  c0.2-3.6,0.4-6.9,0.4-8.8c0-5.7-3.6-8.2-11.7-8.2c-3.4,0-6.9,0.5-10.8,1.5l-0.6,0.2l-0.8,6l1.6-0.7c3.3-1.4,6.7-2.1,10-2.1  c2.5,0,5.6,0.5,5.6,3.1c0,2.5-3,3.4-7.9,4.6c-5.7,1.4-12.7,3.1-12.7,10.4C28.3,36.5,30.2,41.1,39.5,41.1z"/>
<path d="M77.3,16.1l1.3,0.4l-0.2-6.2l-0.7-0.2c-0.8-0.2-1.7-0.3-2.5-0.3c-3.2,0-5.7,0.9-7.5,3l0.1-2.4h-6.7l0,1  c0.1,10.5-0.4,18-0.8,25.4L60,40.5h7v-1c0-6.8,0-13.2,0.6-16.8c0.3-2.1,1.6-7,6.8-7C75.3,15.7,76.3,15.8,77.3,16.1z"/>
<path d="M116.3,9.8c-4.3,0-7.6,1.6-9.7,4.5c-1.5-2.9-4.6-4.5-8.7-4.5c-3.4,0-6.4,1.3-8.5,3.4l0.2-2.8h-6.7l0,0.9  c-0.1,7.4-0.4,18.6-1.2,28.1l-0.1,1h7l0.1-4c0.3-9.8,0.4-14.2,1.6-16.9c1.8-3.8,5-4.1,5.9-4.1c3.2,0,4.7,1.6,4.7,5  c0,4.5-0.3,9.1-0.6,13.6c-0.1,1.8-0.2,3.6-0.3,5.4l-0.1,1h6.9l0.1-4c0.3-9.8,0.4-14.2,1.6-16.9c1.8-3.8,5-4.1,5.9-4.1  c3.2,0,4.7,1.6,4.7,5c0,4.5-0.3,9.1-0.6,13.5c-0.1,1.8-0.2,3.6-0.3,5.5l-0.1,1h6.7l0-0.9c0.1-7.2,0.4-12.3,0.7-16.1  c0.1-2.1,0.3-3.8,0.3-5C126,13.1,122.3,9.8,116.3,9.8z"/>
<polygon points="139,0.6 131.8,0.6 131.6,6.5 138.9,6.5 "/>
<path d="M137.5,39.5c0.1-9.6,0.4-19.1,1.1-28.1l0.1-1h-7l0,0.9c-0.1,9.6-0.5,19.1-1.2,28.1l-0.1,1h7.2L137.5,39.5z"/>
<path d="M150.3,38.3c0.1-3.8,0.2-11.6,1.1-16c0.9-4.3,4.1-6.8,8.4-6.8c4.5,0,6.7,1.8,6.7,5.8c0,4.9-0.7,14.9-0.9,18.2l-0.1,1h6.9  l0-0.9c0-2.6,0.3-8.2,0.5-12.6c0.2-3.5,0.3-6.5,0.3-7.4c0-6.4-4-9.8-11.6-9.8c-4.5,0-7.9,1.2-10.2,3.7l0.2-3.1h-6.9l0,0.9  c-0.1,9.6-0.8,19.1-1.4,28.1l-0.1,1h7L150.3,38.3z"/>
<path d="M207.5,14.3l0.3-3.2l-0.9-0.1c-3.4-0.6-7-1.2-10.8-1.2c-17.9,0-19.3,13.7-19.3,17.9c0,8.2,5.1,13.3,13.2,13.3  c4.2,0,7.6-1.5,9.9-4.1c-0.1,2.4-0.2,4.9-0.8,7c-1,3.4-3.1,4.7-8,4.7c-3.9,0-7.5-1-10.5-1.9l-1.3-0.4l0.4,6.3l0.7,0.2  c3.8,0.9,7.6,1.4,11.5,1.4c9.6,0,14.2-4,14.4-12.6C206.8,22.7,207.1,19.2,207.5,14.3z M195.9,15.2c1.6,0,3.2,0.1,4.9,0.5  c0,0.9-0.1,2-0.1,3.1c-0.1,3.5-0.2,7.8-1.1,10.3c-1.3,4.1-4.3,6.4-8.1,6.4c-6.5,0-7.9-4.7-7.9-8.6C183.6,25.7,183.9,15.2,195.9,15.2  z"/>
<path d="M234,37l-0.2,3.5h6.7l0-0.9c0.1-11.6,0.6-24,1.4-37.9l0.1-1h-7v1c0,3.4,0,5.8-0.1,8.6c-1.7-0.3-3.4-0.4-5.3-0.4  c-13.3,0-18.1,9.3-18.1,17.3c0,8.4,5.2,14,12.9,14C228.4,41.1,231.6,39.7,234,37z M229.3,15.2c2.1,0,3.7,0.2,5.2,0.6  c0,1.1-0.1,2.2-0.1,3.3c0,3-0.1,6.1-0.7,9c-1,4.8-3.9,7.6-8,7.6c-4.7,0-7.6-3.3-7.6-8.8C218.2,22.9,220.5,15.2,229.3,15.2z"/>
<path d="M255.8,41.1c1.8,0,3.6-0.2,5.7-0.6l0.6-0.1l1.5-5.7l-1.7,0.6c-1.9,0.6-3.8,1-5.5,1c-1.6,0-5.4-0.4-5.4-3.6  c0-3.1,3.3-4.3,8.4-5.7c2.1-0.6,4.1-1.1,5.7-2c0,0.7-0.1,1.5-0.1,2.2c-0.2,4.4-0.4,9-0.8,12.2l-0.1,1.1h7v-1c0-3.4,0.3-8.3,0.5-12.7  c0.2-3.6,0.4-6.9,0.4-8.8c0-5.7-3.6-8.2-11.7-8.2c-3.4,0-6.9,0.5-10.8,1.5l-0.6,0.2l-0.8,6l1.6-0.7c3.3-1.4,6.7-2.1,10-2.1  c2.5,0,5.6,0.5,5.6,3.1c0,2.5-3,3.4-7.9,4.6c-5.7,1.4-12.7,3.1-12.7,10.4C244.5,36.5,246.5,41.1,255.8,41.1z"/>
<path d="M283.4,39.5c0.3-12.4,0.7-25.6,1.6-37.9l0.1-1h-7l0,0.9c-0.3,12.5-0.9,25.3-1.7,37.9l-0.1,1h7.1L283.4,39.5z"/>
<path d="M303,41.1c2.9,0,5.8-0.4,8.8-1.2l0.6-0.1l1.2-6.3l-1.5,0.5c-2.4,0.8-5.5,1.7-8.3,1.7c-6.1,0-9.6-3.4-9.6-9.2v-0.6h21.2  l0.1-0.9c0.1-1.1,0.2-1.9,0.2-2.7c0-7.9-4.8-12.5-13.2-12.5c-9.1,0-15,6.4-15,16.3C287.4,35.8,292.9,41.1,303,41.1z M294.7,20.9  c1.1-4,4-6.3,8.1-6.3c4.9,0,6,3.6,6.2,6.3H294.7z"/>
<path d="M350.7,18.2c-3.5-2.8-6.9-5.4-6.9-8.3c0-2.1,2.1-4.2,6.2-4.2c2.4,0,4.8,0.5,7.4,1.4l1.4,0.5L358.2,1l-0.7-0.1  c-2.4-0.4-5.2-0.9-8.1-0.9c-8.1,0-12.8,3.8-12.8,10.5c0,4.6,4.6,8.4,9.1,12c3.4,2.7,6.8,5.5,6.8,7.9c0,4.1-3.7,5-6.9,5  c-3.4,0-6.9-1.3-9.1-2.4l-1.5-0.7l0.6,7l0.6,0.2c3.1,0.8,6.5,1.6,10,1.6c6.5,0,13.4-2.7,13.4-10.4C359.8,25.4,354.9,21.6,350.7,18.2  z"/>
<path d="M374.1,35.4c-2,0-2.5-0.9-2.5-3.9c0-2.4,0.2-6.6,0.4-10.7c0.1-1.7,0.2-3.4,0.2-5h7.7l0.2-5.4h-7.7l0.2-6.4l-6.4,1.4l-0.3,5  h-3.8l-0.2,5.4h3.7c-0.1,2.6-0.3,5.5-0.4,8.3c-0.2,3.8-0.4,7.4-0.4,9.2c0,5.3,2.4,7.7,7.9,7.7c1.6,0,3.4-0.2,5.4-0.7l0.6-0.1l1-5.9  l-1.4,0.4C376.9,35.1,375.7,35.4,374.1,35.4z"/>
<path d="M397.7,9.8c-3.4,0-6.9,0.5-10.8,1.5l-0.6,0.2l-0.8,6l1.6-0.7c3.3-1.4,6.7-2.1,10-2.1c2.5,0,5.6,0.5,5.6,3.1  c0,2.5-3,3.4-7.9,4.6C389,23.7,382,25.4,382,32.7c0,3.8,2,8.4,11.3,8.4c1.8,0,3.7-0.2,5.7-0.6l0.6-0.1l1.5-5.7l-1.7,0.6  c-2,0.6-3.8,1-5.6,1c-1.6,0-5.4-0.3-5.4-3.6c0-3.2,3.3-4.3,8.4-5.7c2.1-0.6,4.1-1.1,5.7-2c0,0.8-0.1,1.5-0.1,2.3  c-0.2,4.4-0.4,8.9-0.8,12.2l-0.1,1.1h7v-1c0-3.4,0.3-8.3,0.5-12.7c0.2-3.6,0.4-6.9,0.4-8.8C409.4,12.3,405.7,9.8,397.7,9.8z"/>
<path d="M422.2,4l-6.4,1.4l-0.3,5h-3.8l-0.2,5.4h3.7c-0.1,2.6-0.3,5.7-0.4,8.5c-0.2,3.7-0.4,7.3-0.4,9c0,5.3,2.4,7.7,7.9,7.7  c1.6,0,3.4-0.2,5.5-0.7l0.6-0.1l1-5.9l-1.4,0.4c-1.4,0.4-2.6,0.7-4.3,0.7c-2,0-2.5-0.9-2.5-3.9c0-2.4,0.2-6.7,0.4-10.8  c0.1-1.6,0.2-3.3,0.2-4.8h7.7l0.2-5.4H422L422.2,4z"/>
<path d="M445.9,9.8c-9.1,0-15,6.4-15,16.3c0,9.7,5.5,15,15.6,15c2.9,0,5.8-0.4,8.8-1.2l0.6-0.2l1.2-6.3l-1.5,0.5  c-2.4,0.8-5.5,1.7-8.3,1.7c-6.1,0-9.6-3.4-9.6-9.2v-0.6h21.2l0.1-0.8c0.1-1.1,0.2-1.9,0.2-2.7C459.1,14.3,454.3,9.8,445.9,9.8z   M438.2,20.9c1.1-4,4-6.3,8.1-6.3c4.9,0,6,3.6,6.2,6.3H438.2z"/>
<path d="M495.6,5.7c2.7,0,5.4,0.5,9,1.6l1.3,0.4l-0.4-6.5L504.8,1c-3.4-0.7-6.5-1-9.4-1c-13.8,0-22.5,8.3-22.5,21.6  c0,12,8,19.5,21,19.5c3.5,0,6.9-0.6,10-1.2l0.7-0.1l1-6.5l-1.5,0.4c-3.7,1.1-7,1.7-10,1.7c-8.6,0-14-5.4-14-14.2  C480.1,11.8,486.2,5.7,495.6,5.7z"/>
<path d="M523.5,9.8c-9.8,0-15.9,6.3-15.9,16.4c0,9.1,5.9,14.9,15,14.9c11.6,0,15.8-8.5,15.8-16.5C538.4,15.4,532.7,9.8,523.5,9.8z   M522.7,35.7c-7.6,0-8.4-6.5-8.4-9.3c0-6.9,3.3-11.1,8.8-11.1c5.7,0,8.5,3.1,8.5,9.3C531.7,28.7,530.5,35.7,522.7,35.7z"/>
<path d="M542.9,1.6c-0.3,12.6-0.9,25.3-1.7,37.9l-0.1,1h7.1l0-0.9c0.3-12.4,0.7-25.5,1.6-37.9l0.1-1h-7L542.9,1.6z"/>
<path d="M555.2,1.6c-0.3,12.6-0.9,25.4-1.7,37.9l-0.1,1h7.1l0-0.9c0.4-13,0.7-25.6,1.6-37.9l0.1-1h-7L555.2,1.6z"/>
<path d="M578.4,9.8c-9.1,0-15,6.4-15,16.3c0,9.7,5.5,15,15.6,15c2.9,0,5.8-0.4,8.8-1.2l0.6-0.2l1.2-6.3l-1.5,0.5  c-2.4,0.8-5.5,1.7-8.3,1.7c-6.1,0-9.6-3.4-9.6-9.2v-0.6h21.2l0.1-0.9c0.1-1.1,0.2-1.9,0.2-2.7C591.6,14.3,586.8,9.8,578.4,9.8z   M570.7,20.9c1.1-4,4-6.3,8.1-6.3c4.8,0,6,3.6,6.2,6.3H570.7z"/>
<path d="M612.2,9.8c-17.9,0-19.3,13.7-19.3,17.9c0,8.2,5.1,13.3,13.2,13.3c4.2,0,7.6-1.5,9.9-4.1c-0.1,2.4-0.2,4.9-0.8,7  c-1,3.4-3.2,4.7-8,4.7c-3.9,0-7.5-1-10.5-1.9l-1.3-0.4l0.4,6.3l0.7,0.2c3.8,0.9,7.6,1.4,11.5,1.4c9.6,0,14.2-4,14.4-12.6  c0.5-18.6,0.8-22.1,1.2-27l0.3-3.2l-0.9-0.1C619.6,10.3,616,9.8,612.2,9.8z M612,15.2c1.6,0,3.2,0.1,4.9,0.4c0,0.9-0.1,2-0.1,3.2  c-0.1,3.5-0.2,7.8-1.1,10.3c-1.3,4.1-4.3,6.4-8.1,6.4c-6.5,0-7.9-4.7-7.9-8.6C599.7,25.7,600,15.2,612,15.2z"/>
<path d="M640.2,9.8c-9.1,0-15,6.4-15,16.3c0,9.7,5.5,15,15.6,15c2.9,0,5.8-0.4,8.8-1.2l0.6-0.2l1.2-6.3l-1.5,0.5  c-2.4,0.8-5.5,1.7-8.3,1.7c-6.1,0-9.6-3.4-9.6-9.2v-0.6h21.2l0.1-0.9c0.1-1.1,0.2-1.9,0.2-2.7C653.4,14.3,648.6,9.8,640.2,9.8z   M632.5,20.9c1.1-4,4-6.3,8.1-6.3c4.9,0,6,3.6,6.2,6.3H632.5z"/>
<polygon class="st0" points="0,48.6 0,51.3 172.3,51.3 172.3,48.6 1.1,48.6 "/>
<polygon class="st0" points="628.6,48.6 628.6,51.3 650,51.3 650,48.6 628.6,48.6 "/>
</svg>