<?xml version="1.0" encoding="UTF-8"?>
<svg version="1.1" xmlns="http://www.w3.org/2000/svg" width="300" height="300">
<path d="M0 0 C99 0 198 0 300 0 C300 99 300 198 300 300 C201 300 102 300 0 300 C0 201 0 102 0 0 Z " fill="#363636" transform="translate(0,0)"/>
<path d="M0 0 C1.38059612 1.11812537 2.75554251 2.24325966 4.125 3.375 C5.35669922 4.31859375 5.35669922 4.31859375 6.61328125 5.28125 C22.23325715 18.30194531 31.93088957 40.57138393 34.125 60.375 C35.88781858 83.1690107 29.84318911 106.09649227 15.21875 123.9921875 C-0.40829579 141.77669856 -19.87569239 153.67377923 -43.875 156.375 C-68.43046388 157.89996035 -90.80008769 151.13879545 -109.875 135.375 C-111.10669922 134.43140625 -111.10669922 134.43140625 -112.36328125 133.46875 C-127.98325715 120.44805469 -137.68088957 98.17861607 -139.875 78.375 C-141.76255209 53.96813076 -134.48405995 31.26267528 -118.875 12.375 C-118.2459375 11.55386719 -117.616875 10.73273437 -116.96875 9.88671875 C-88.64865577 -24.08682713 -33.73277787 -26.05105617 0 0 Z " fill="#7F7F7F" transform="translate(202.875,28.625)"/>
<path d="M0 0 C5.86574305 -0.09383358 11.72354136 -0.0558055 17.58886719 0.04589844 C18.29881836 0.05314941 19.00876953 0.06040039 19.74023438 0.06787109 C57.49655864 0.59599417 103.23163323 10.7579626 131.40917969 37.70214844 C140.1807208 47.13391307 146.67235762 57.81578685 146.77636719 70.98339844 C146.79054688 71.79679687 146.80472656 72.61019531 146.81933594 73.44824219 C146.58886719 76.04589844 146.58886719 76.04589844 144.58886719 82.04589844 C54.16886719 82.04589844 -36.25113281 82.04589844 -129.41113281 82.04589844 C-132.91308797 71.54003297 -131.56147819 63.27399417 -127.41113281 53.04589844 C-125.68126874 49.79554866 -123.69047812 46.93233329 -121.41113281 44.04589844 C-120.9096875 43.38203125 -120.40824219 42.71816406 -119.89160156 42.03417969 C-97.26596215 14.01361895 -54.06313524 4.94589146 -20.41113281 1.04589844 C-13.61003738 0.35703322 -6.83059527 0.13002753 0 0 Z " fill="#7F7F7F" transform="translate(142.4111328125,207.9541015625)"/>
</svg>
